<svg width="15" height="15" viewBox="0 0 15 15" fill="none" xmlns="http://www.w3.org/2000/svg">
<path fill-rule="evenodd" clip-rule="evenodd" d="M6.5 10.25C6.77614 10.25 7 10.4739 7 10.75V12.7079C9.74874 11.1024 11.4025 9.96659 12.3999 8.97494C12.9787 8.39946 13.2971 7.9087 13.482 7.44074C13.6679 6.97021 13.75 6.44448 13.75 5.75C13.75 3.26472 11.7353 1.25 9.25 1.25H5.75C3.26472 1.25 1.25 3.26472 1.25 5.75C1.25 8.23528 3.26472 10.25 5.75 10.25H6.5ZM7 14.1529C13.6641 10.3177 15 8.74691 15 5.75C15 2.57436 12.4256 0 9.25 0H5.75C2.57436 0 0 2.57436 0 5.75C0 8.92564 2.57436 11.5 5.75 11.5V14.0086C5.75 14.3911 6.16196 14.6318 6.4943 14.4424C6.66618 14.3445 6.83473 14.248 7 14.1529Z" fill="#687684"/>
</svg>
