<svg width="19" height="14" viewBox="0 0 19 14" fill="none" xmlns="http://www.w3.org/2000/svg">
<path d="M3.85355 0.969689C3.65829 0.774427 3.34171 0.774427 3.14645 0.969689L0.558058 3.55808C0.313981 3.80216 0.313981 4.19788 0.558058 4.44196C0.802136 4.68604 1.19786 4.68604 1.44194 4.44196L2.875 3.0089V10.5C2.875 12.2259 4.27411 13.625 6 13.625H10C10.3452 13.625 10.625 13.3452 10.625 13C10.625 12.6548 10.3452 12.375 10 12.375H6C4.96447 12.375 4.125 11.5356 4.125 10.5V3.0089L5.55806 4.44196C5.80214 4.68604 6.19786 4.68604 6.44194 4.44196C6.68602 4.19788 6.68602 3.80216 6.44194 3.55808L3.85355 0.969689Z" fill="#687684"/>
<path d="M14.7714 13.6553C14.9667 13.8506 15.2833 13.8506 15.4786 13.6553L18.0669 11.0669C18.311 10.8228 18.311 10.4271 18.0669 10.183C17.8229 9.93896 17.4271 9.93896 17.1831 10.183L15.75 11.6161V4.12498C15.75 2.39909 14.3509 0.999981 12.625 0.999981H8.625C8.27982 0.999981 8 1.2798 8 1.62498C8 1.97016 8.27982 2.24998 8.625 2.24998H12.625C13.6605 2.24998 14.5 3.08945 14.5 4.12498V11.6161L13.0669 10.183C12.8229 9.93896 12.4271 9.93896 12.1831 10.183C11.939 10.4271 11.939 10.8228 12.1831 11.0669L14.7714 13.6553Z" fill="#687684"/>
</svg>
