<svg width="16" height="14" viewBox="0 0 16 14" fill="none" xmlns="http://www.w3.org/2000/svg">
<path fill-rule="evenodd" clip-rule="evenodd" d="M3.801 0.116975C4.70936 -0.110107 5.66825 -0.00392529 6.50114 0.412501L6.84439 0.584118C7.25885 0.791337 7.62315 1.07457 7.92092 1.41413C7.96262 1.46168 8.03738 1.46168 8.07908 1.41413C8.37685 1.07457 8.74115 0.791337 9.15561 0.584118L9.49886 0.412501C10.3318 -0.00392529 11.2906 -0.110107 12.199 0.116975C13.072 0.335201 13.8339 0.844888 14.3627 1.54996L14.5553 1.80682C15.1706 2.62707 15.5 3.61989 15.5 4.6363V4.92317C15.5 5.37799 15.4442 5.83129 15.3338 6.27303L15.2666 6.54171C15.0139 7.55255 14.5612 8.50474 13.9332 9.34191L13.5419 9.86374C13.2272 10.2833 12.8829 10.6803 12.5115 11.0517L12.1146 11.4486C11.1621 12.401 10.0609 13.1951 8.85236 13.7993C8.31719 14.0669 7.68281 14.0669 7.14764 13.7993C5.93914 13.1951 4.83786 12.401 3.88544 11.4486L3.48849 11.0517C3.11709 10.6803 2.77281 10.2833 2.45814 9.86374L2.06675 9.34191C1.43884 8.50474 0.986109 7.55255 0.733388 6.54171L0.666213 6.27303C0.555775 5.83129 0.5 5.37799 0.5 4.92317V4.6363C0.5 3.61989 0.829438 2.62707 1.44465 1.80682L1.6373 1.54996C2.16613 0.844888 2.92805 0.335201 3.801 0.116975ZM5.92056 1.42404C5.35999 1.14377 4.72215 1.07469 4.1191 1.22544C3.53787 1.37074 3.01507 1.71404 2.64454 2.20805L2.45189 2.46491C1.98501 3.08738 1.72951 3.84931 1.72951 4.6363V4.92317C1.72951 5.29055 1.77457 5.65634 1.86356 6.01226L1.93073 6.28095C2.14855 7.15217 2.53785 7.96901 3.07399 8.68382L3.46537 9.20565C3.74739 9.58165 4.05551 9.93686 4.38731 10.2686L4.78426 10.6656C5.64673 11.528 6.64105 12.2442 7.72822 12.7878C7.90072 12.874 8.09928 12.874 8.27178 12.7878C9.35895 12.2442 10.3533 11.528 11.2157 10.6656L11.6127 10.2686C11.9445 9.93686 12.2526 9.58165 12.5346 9.20565L12.926 8.68382C13.4621 7.96901 13.8515 7.15217 14.0693 6.28095L14.1364 6.01226C14.2254 5.65634 14.2705 5.29055 14.2705 4.92317V4.6363C14.2705 3.84931 14.015 3.08738 13.5481 2.46491L13.3555 2.20805C12.9849 1.71404 12.4621 1.37074 11.8809 1.22544C11.2779 1.07469 10.64 1.14377 10.0794 1.42404L9.73619 1.59566C9.2923 1.8176 8.92422 2.18181 8.69478 2.64068C8.28499 3.46022 7.71238 3.45495 7.30522 2.64068C7.07578 2.18181 6.7077 1.8176 6.26381 1.59566L5.92056 1.42404Z" fill="#687684"/>
</svg>
